<svg width="236" height="60" viewBox="0 0 236 60" xmlns="http://www.w3.org/2000/svg" xmlns:xlink="http://www.w3.org/1999/xlink"><title>Page 1</title><defs><path id="a" d="M0 59.37h235.294V0H0z"/></defs><g fill="none" fill-rule="evenodd"><path d="M45.02 24.473c.49-3.064 1.626-7.117 4.138-10.607 3.407-4.647 9.058-8.663 20.19-8.63L70.461.024c-13.095-.413-21.199 4.648-25.54 10.802-3.408 4.777-4.688 9.964-5.17 13.646l5.269.001z" fill="#494949"/><path d="M54.454 24.473c.429-1.523 1.109-3.168 2.17-4.634 1.932-2.61 4.923-4.93 10.762-5.384l1.13-5.3c-8.016.202-13.276 3.563-16.13 7.64-1.866 2.618-2.814 5.371-3.312 7.68m0 0l5.38-.001m10.752-.014l1.168-5.291c-3.254.25-5.133 1.702-6.415 3.57-.453.64-.738 1.092-1.02 1.72h6.267zm35.008 0h-5.62l1.196-5.291s4.335.973 4.424 5.29m-87.521-5.263L6.68 47.451c-1.051 4.964.44 7.172 4.25 7.172 3.75 0 6.237-2.208 7.286-7.172l6.013-28.255h6.289l-5.904 27.761C22.68 56.058 17.438 59.37 9.933 59.37c-7.56 0-11.365-3.312-9.436-12.413l5.907-27.761h6.29zm20.353 9.714h5.628l-.722 3.475h.17c2.042-2.647 5.191-4.247 8.5-4.247 4.524 0 6.949 2.042 5.685 8.057L47.56 58.6h-5.961l4.306-20.366c.824-3.859 0-5.35-2.98-5.35-2.426 0-5.132 1.929-5.96 5.795l-4.25 19.92h-5.96l6.292-29.69zm25.317 0h5.957L58.034 58.6h-5.96zm12.711-9.714h20.114l-1.158 5.299H76.204L73.89 35.423h13.85l-1.1 5.294H72.786l-3.808 17.884h-6.293zm22.629 9.714h5.961L93.372 58.6h-5.957zm14.699-5.823c.56 0 1.059-.055 1.059-.716 0-.552-.54-.618-.993-.618h-.904v1.334h.838zm-.838 2.59h-.75v-4.563h1.73c1.104 0 1.666.386 1.666 1.312 0 .827-.507 1.168-1.192 1.246l1.28 2.006h-.85l-1.178-1.95h-.706v1.95zm.815-5.765c-1.785 0-3.175 1.401-3.175 3.407 0 1.874 1.213 3.406 3.175 3.406 1.764 0 3.153-1.388 3.153-3.406 0-2.006-1.39-3.407-3.153-3.407zm0 7.53c-2.37 0-4.057-1.775-4.057-4.123 0-2.48 1.874-4.124 4.057-4.124 2.16 0 4.036 1.644 4.036 4.124 0 2.481-1.876 4.122-4.036 4.122zm18.234 10.55l-1.716 7.986h3.482l-1.716-7.986z" fill="#494949"/><path d="M139.846 53.02c-5.376 0-6.048-3.831-6.048-9.23 0-5.4.672-9.23 6.048-9.23 5.124 0 5.497 3.756 5.497 6.343h-3.582c0-2.587-.523-3.707-2.139-3.707-1.816 0-2.24 1.816-2.24 6.842 0 5.374.746 6.345 2.29 6.345 1.292 0 2.238-.672 2.238-4.504h3.583c0 3.832-.946 7.14-5.647 7.14zm-10.023-.35l-.821-3.756h-4.727l-.821 3.757h-3.732l4.702-17.764h4.43l4.7 17.764h-3.73zm20.186-23.73h-34.783c-1.552 0-2.812 6.664-2.812 14.85 0 8.207 1.26 14.85 2.812 14.85h34.783c1.544 0 2.792-6.643 2.792-14.85 0-8.186-1.248-14.85-2.792-14.85z" fill="#494949"/><mask id="b" fill="#fff"><use xlink:href="#a"/></mask><path fill="#494949" mask="url(#b)" d="M159.4 52.663h2.833v-17.74H159.4zm5.02-17.741h3.454l5.143 13.219h.05V34.922h2.683v17.741h-3.454l-5.143-13.566h-.05v13.566h-2.683zm13.295 11.828h6.51v-2.535h-6.51zm7.158-11.828h2.857l2.334 13.79h.05l2.336-13.79h2.982l2.385 13.865h.05l2.31-13.865h2.807l-3.527 17.741h-3.28l-2.285-13.368h-.051l-2.26 13.368h-3.28zm25.496 11.131l-2.038-8.745h-.05l-2.112 8.745h4.2zm-3.777-11.13h3.627l4.671 17.74h-2.956l-1.093-4.348h-5.193l-1.143 4.347h-2.956l5.043-17.74zm8.6-.001h2.832v15.356h6.858v2.385h-9.69zm10.412 0h2.833v15.356h6.857v2.385h-9.69z"/></g></svg>